<?xml version="1.0" encoding="UTF-8"?>
<!DOCTYPE svg PUBLIC "-//W3C//DTD SVG 1.1//EN" "http://www.w3.org/Graphics/SVG/1.1/DTD/svg11.dtd">
<!-- Creator: CorelDRAW -->
<svg xmlns="http://www.w3.org/2000/svg" xml:space="preserve" width="210mm" height="297mm" version="1.1" style="shape-rendering:geometricPrecision; text-rendering:geometricPrecision; image-rendering:optimizeQuality; fill-rule:evenodd; clip-rule:evenodd"
viewBox="0 0 21000 29700"
 xmlns:xlink="http://www.w3.org/1999/xlink"
 xmlns:xodm="http://www.corel.com/coreldraw/odm/2003">
 <defs>
  <style type="text/css">
   <![CDATA[
    .fil1 {fill:#03AEEE}
    .fil0 {fill:#1E77BC}
    .fil3 {fill:#8CC641}
    .fil2 {fill:#F8CA19}
    .fil4 {fill:#FAB042}
    .fil5 {fill:black;fill-rule:nonzero}
    .fil6 {fill:#1E77BC;fill-rule:nonzero}
   ]]>
  </style>
 </defs>
 <g id="Layer_x0020_1">
  <metadata id="CorelCorpID_0Corel-Layer"/>
  <g id="_1900611447680">
   <g>
    <path class="fil0" d="M5743.27 15255.23c149.16,431.92 725.14,970.43 1060.73,1205.62 496.62,348.05 963.48,470.55 1713.77,555.52 -481.78,777.88 62.89,1743.59 996.77,1551.89 339.79,-69.76 676.73,-369.05 743.62,-759.79 108.09,-631.34 -231.9,-795.89 -478.14,-1080.95 515.05,-203.05 1126.14,-660.24 1234.77,-1291.36 69.89,-406.11 -84.66,-761.2 -429.74,-825.4 -698.89,-130.03 -1121.77,808.62 -2730.28,1056.11 -398.24,61.28 -789.27,51.28 -1168.07,-34.46 -435.37,-98.55 -626.46,-279.62 -943.43,-377.18z"/>
    <path class="fil1" d="M4800.04 13226.71c-526.36,-63.87 -814.66,1.09 -1082.91,319.53 -541.02,642.28 -28.33,1766.94 961.43,1566.11 603.86,-122.52 525.52,-420.49 776.15,-764.02 308.06,252.16 891.05,987 1769.87,733.55 314.25,-90.64 600.87,-356.51 477.45,-756.97 -168.29,-546 -1105.61,-780.38 -1801.4,-2098.26 -413.67,-783.53 -411.31,-1256.95 -263.54,-2194.87 -298.14,199.43 -679.18,916.88 -814.25,1323.46 -219.69,661.23 -196.9,1219.83 -22.8,1871.47z"/>
    <path class="fil2" d="M6383.91 9474.34c-64.64,287.4 -282.45,525.4 -332.59,928.04 -133.07,1068.37 604.5,1640.88 1122.59,1160.09 405.58,-376.37 843.12,-2854.5 3054.08,-3190.14 42.73,-6.49 114.08,-13.59 151.64,-22.29l98.16 -32.18c6.82,-2.46 20.4,-7.43 29.27,-13.47 -552.04,-383.93 -1712.36,-402.53 -2502.26,-154.33 -287.45,90.31 -489.17,248.9 -707.36,303.71l-106.21 -263.29c-30.11,-91.64 -66.28,-159.94 -129.18,-248.6 -110.19,-155.33 -209.55,-251.27 -406.1,-329.84 -880.58,-352.03 -1678.88,526 -1254.99,1343.33 205.24,395.74 495.74,494.47 982.95,518.97z"/>
    <path class="fil3" d="M10746.72 16744.45c844.59,-95.37 1706.6,-711.28 2148.17,-1350.74 109.68,-158.83 327.27,-666.01 402.12,-730.93 519.33,727.12 1633.62,398.13 1750.06,-415.22 133.43,-932.03 -900.16,-1476.38 -1645.47,-868 -156.73,-772.17 -303.29,-1307.71 -886.65,-1600.49 -360.47,-180.9 -738.08,-126.41 -896.18,157.99 -364.38,655.43 855.85,2319.49 -270.93,4095.54 -208.68,328.92 -414.77,435.33 -601.12,711.85z"/>
    <path class="fil4" d="M11315.87 8889.86c-2184.53,-278.64 -2333.06,1038.38 -1768.22,1363.21 584.59,336.19 3278.95,-130.17 4156.09,2271.86 204.89,-1262.35 -286.82,-2343.28 -1203.66,-3107.52 165.39,-145.29 597.84,-267.63 670.98,-817.06 128.85,-968.02 -1010.15,-1453.23 -1632.35,-853.62 -340.58,328.21 -343.41,624.48 -222.84,1143.13z"/>
   </g>
   <g>
    <path class="fil5" d="M7115.71 13460.12l320.18 0 0 -1334.23 614.04 1334.23 467.11 0 0 -1607.74 -315.8 0 0 1265.29 -594.3 -1265.29 -491.23 0 0 1607.74zm1697.39 0l592.11 0c61.41,0 276.32,0 399.13,-64.49 122.82,-62.26 232.46,-189.01 232.46,-378.03 0,-169 -94.3,-346.9 -335.53,-391.37l0 -4.45c92.11,-24.46 168.86,-95.62 179.83,-108.96 81.14,-75.61 92.1,-180.12 92.1,-240.16 0,-93.4 -32.89,-249.06 -177.63,-342.45 -120.61,-75.61 -298.25,-75.61 -390.36,-75.61l-592.11 0 0 1605.52zm324.57 -1358.69l230.26 0c111.85,0 278.51,0 278.51,200.14 0,206.8 -175.43,206.8 -271.93,206.8l-236.84 0 0 -406.94zm0 656l195.17 0c162.29,0 366.24,0 366.24,229.04 0,215.7 -175.45,215.7 -331.15,215.7l-230.26 0 0 -444.74zm1120.62 702.69l346.5 0 0 -649.32 298.24 0c57.03,0 140.36,0 171.06,91.17 21.93,62.26 70.18,469.2 85.53,558.15l375 0c-17.54,-26.68 -30.7,-44.47 -48.24,-115.63 -10.97,-44.48 -24.12,-122.31 -48.25,-311.32 -28.51,-209.03 -46.05,-346.9 -285.08,-369.14 76.75,-22.24 331.14,-93.39 331.14,-393.59 0,-104.52 -39.48,-222.38 -138.17,-309.1 -127.19,-111.19 -304.82,-111.19 -480.26,-108.96l-607.47 0 0 1607.74zm335.53 -1354.24l228.08 0c107.46,0 171.06,0 223.68,37.8 30.71,20.02 83.34,71.16 83.34,180.12 0,113.41 -63.6,169.01 -87.72,186.8 -54.83,44.47 -133.78,44.47 -173.25,44.47l-274.13 0 0 -449.19z"/>
    <path class="fil6" d="M7211.56 13345.27l303.44 0 0 -1247 581.93 1247 442.69 0 0 -1502.64 -299.28 0 0 1182.58 -563.23 -1182.58 -465.55 0 0 1502.64zm1608.64 0l561.15 0c58.19,0 261.87,0 378.26,-60.27 116.38,-58.2 220.3,-176.66 220.3,-353.32 0,-157.95 -89.37,-324.22 -317.99,-365.79l0 -4.15c87.3,-22.87 160.04,-89.37 170.43,-101.84 76.9,-70.67 87.29,-168.35 87.29,-224.46 0,-87.29 -31.18,-232.78 -168.35,-320.07 -114.31,-70.66 -282.65,-70.66 -369.94,-70.66l-561.15 0 0 1500.56zm307.59 -1269.87l218.23 0c105.99,0 263.95,0 263.95,187.05 0,193.29 -166.27,193.29 -257.72,193.29l-224.46 0 0 -380.34zm0 613.11l184.97 0c153.8,0 347.09,0 347.09,214.07 0,201.6 -166.27,201.6 -313.83,201.6l-218.23 0 0 -415.67zm1062.03 656.76l328.38 0 0 -606.88 282.65 0c54.04,0 133.02,0 162.11,85.22 20.79,58.19 66.51,438.53 81.06,521.66l355.39 0c-16.62,-24.94 -29.09,-41.57 -45.72,-108.07 -10.39,-41.57 -22.86,-114.31 -45.72,-290.97 -27.02,-195.37 -43.65,-324.22 -270.19,-345.01 72.75,-20.78 313.83,-87.29 313.83,-367.86 0,-97.68 -37.41,-207.84 -130.93,-288.89 -120.55,-103.92 -288.89,-103.92 -455.16,-101.84l-575.7 0 0 1502.64zm317.99 -1265.71l216.14 0c101.84,0 162.11,0 211.99,35.33 29.1,18.71 78.98,66.51 78.98,168.35 0,105.99 -60.27,157.95 -83.13,174.58 -51.96,41.57 -126.78,41.57 -164.19,41.57l-259.79 0 0 -419.83z"/>
   </g>
   <path class="fil5" d="M3611.67 19209.14l248.92 645.21 0 -645.21 180.93 0 0 931.99 -256.02 0 -255.15 -681.13 0 681.13 -180.94 0 0 -931.99 262.26 0zm4943.27 0c100.47,0 173.84,18.51 220.09,55.72 46.04,37.22 69.28,96.82 69.28,179.22 0,59.59 -13.34,107.14 -40.02,142.85 -26.46,35.71 -66.05,58.95 -118.33,69.92 59.6,8.39 103.49,30.98 131.88,67.77 28.19,36.79 42.39,91.22 42.39,163.51 0,87.56 -22.81,151.67 -68.63,192.12 -45.83,40.66 -118.12,60.88 -216.86,60.88l-347.46 0 0 -931.99 327.66 0zm-30.76 380.8c35.28,0 61.53,-4.95 78.74,-14.84 17.21,-9.68 30.12,-21.73 38.72,-35.72 8.61,-14.2 12.91,-38.94 12.91,-74.65 0,-36.79 -9.89,-64.76 -29.9,-83.69 -20.01,-18.72 -60.03,-28.18 -120.05,-28.18l-83.9 0 0 237.08 103.48 0zm-103.48 408.12l78.95 0c68.85,0 113.81,-10.54 134.25,-31.62 20.65,-21.09 30.98,-55.29 30.98,-102.84 0,-49.27 -11.4,-83.26 -33.99,-102.19 -22.81,-18.93 -60.46,-28.4 -112.95,-28.4l-97.24 0 0 265.05zm-1359.9 810.22c85.41,0 148.66,20.23 189.75,60.46 41.31,40.44 61.75,102.62 61.75,186.52 0,66.48 -13.77,118.12 -41.31,155.12 -27.53,37 -70.13,60.88 -127.79,71.86 61.31,8.39 103.48,26.03 126.5,52.92 22.81,26.89 36.15,70.35 40.02,130.38l9.46 160.06c1.3,22.59 2.8,44.32 4.74,64.97 1.93,20.44 4.95,37.01 9.03,49.7l-190.83 0c-7.96,-18.93 -13.55,-34.42 -16.35,-46.26 -3.01,-12.04 -4.51,-30.54 -4.51,-55.72l0 -143.06c0,-53.79 -10.55,-90.58 -31.41,-110.59 -21.09,-20 -60.67,-29.9 -119.19,-29.9l-37.87 0 0 385.53 -195.99 0 0 -931.99 324 0zm-128.01 402.75l45.4 0c56.36,0 93.8,-10.55 112.09,-31.41 18.28,-21.09 27.32,-54.87 27.32,-101.55 0,-46.26 -9.04,-78.74 -27.11,-97.67 -18.07,-18.94 -56.8,-28.4 -115.96,-28.4l-41.74 0 0 259.03zm-2280.49 -2001.89l252.58 931.99 -205.46 0 -51.64 -206.75 -265.26 0 -52.93 206.75 -192.76 0 258.38 -931.99 257.09 0zm-232.78 584.75l188.46 0 -97.02 -405.1 -91.44 405.1zm633.81 -584.75l145.43 677.91 163.94 -677.91 192.33 0 -246.55 931.99 -228.05 0 -230.2 -931.99 203.1 0zm730.39 0l139.42 393.92 148.66 -393.92 198.57 0 -259.03 589.92 0 342.07 -197.93 0 0 -342.07 -242.67 -589.92 212.98 0zm768.05 0l0 627.35c0,61.75 9.68,107.79 29.05,137.69 19.36,30.12 49.48,44.97 90.35,44.97 43.68,0 76.16,-15.06 97.03,-45.61 21.09,-30.34 31.63,-75.73 31.63,-135.76l0 -628.64 189.75 0 0 624.99c0,110.36 -25.81,191.9 -77.66,244.61 -51.64,52.71 -132.96,79.17 -243.97,79.17 -105.85,0 -184.16,-26.68 -234.94,-80.25 -50.55,-53.57 -75.94,-135.1 -75.94,-244.83l0 -623.69 194.7 0zm1218.56 280.12l-193.63 0 0 -45.18c0,-35.29 -10.11,-63.9 -30.33,-86.27 -20.01,-22.16 -46.9,-33.14 -80.68,-33.14 -44.54,0 -76.16,18.29 -94.88,55.08 -18.72,36.79 -28.83,85.41 -30.55,146.08 -1.72,60.88 -2.58,106.71 -2.58,137.9l1.94 144.36c1.72,66.7 12.69,117.9 33.13,153.4 20.44,35.5 55.93,53.14 106.92,53.14 17.64,0 34.43,-1.29 50.35,-4.31 15.92,-3.01 32.05,-7.31 47.97,-13.33l0 -205.89 -107.14 0 0 -144.36 299.48 0 0 472.66c-83.69,15.49 -142.43,24.96 -175.99,28.4 -33.56,3.23 -64.97,4.95 -94.01,4.95 -96.6,0 -171.69,-15.92 -225.26,-47.55 -53.57,-31.84 -89.49,-78.95 -107.57,-141.78 -18.07,-62.82 -27.1,-164.79 -27.1,-306.14 0,-131.02 11.4,-227.62 33.99,-289.79 22.8,-62.18 58.3,-108 106.71,-137.48 48.19,-29.47 111.01,-44.1 188.46,-44.1 96.17,0 170.39,24.31 222.46,72.72 52.28,48.4 78.31,117.46 78.31,207.39l0 23.24zm1751.67 -280.12l0 143.72 -314.11 0 0 229.34 289.37 0 0 143.71 -289.37 0 0 269.57 324.22 0 0 145.65 -518.92 0 0 -931.99 508.81 0zm401.45 0l248.92 645.21 0 -645.21 180.93 0 0 931.99 -256.02 0 -255.15 -681.13 0 681.13 -180.94 0 0 -931.99 262.26 0zm1104.96 0l0 143.72 -314.11 0 0 229.34 289.37 0 0 143.71 -289.37 0 0 269.57 324.22 0 0 145.65 -518.92 0 0 -931.99 508.81 0zm616.81 0l0 143.72 -288.08 0 0 238.37 275.17 0 0 143.07 -275.17 0 0 406.83 -195.99 0 0 -931.99 484.07 0zm287.42 0l0 931.99 -194.7 0 0 -931.99 194.7 0zm744.82 294.32l-191.04 0 0 -17.65c0,-52.71 -8.18,-90.57 -24.31,-114.02 -16.14,-23.45 -39.16,-35.07 -68.85,-35.07 -34.21,0 -58.95,13.56 -74.87,40.66 -15.7,27.11 -26.03,61.53 -31.19,103.06 -4.95,41.73 -7.53,111.22 -7.53,208.9 0,32.7 0.86,76.59 2.58,131.45 1.72,54.86 10.97,100.25 27.75,136.18 16.78,35.93 44.97,54 84.55,54 33.13,0 58.3,-13.77 75.3,-41.31 17,-27.53 25.6,-71.42 25.6,-131.45l0 -10.75 192.34 0 0 27.1c0,98.75 -23.88,172.98 -71.21,222.46 -47.55,49.7 -120.7,74.44 -219.45,74.44 -64.32,0 -116.6,-9.68 -157.05,-29.05 -40.45,-19.36 -71.21,-45.39 -92.29,-78.09 -21.3,-32.92 -37.01,-74.66 -47.33,-125.43 -10.33,-50.99 -15.49,-131.67 -15.49,-242.25 0,-86.91 2.79,-155.33 8.17,-204.81 5.38,-49.7 17.86,-95.74 36.79,-138.12 19.15,-42.6 51.2,-76.16 95.95,-101.33 44.75,-24.96 104.99,-37.44 180.5,-37.44 88.64,0 155.98,22.59 202.02,67.77 46.04,45.18 69.06,115.96 69.06,212.35l0 28.4zm331.74 -294.32l0 931.99 -194.7 0 0 -931.99 194.7 0zm608.42 0l252.58 931.99 -205.46 0 -51.64 -206.75 -265.26 0 -52.93 206.75 -192.76 0 258.38 -931.99 257.09 0zm-232.78 584.75l188.46 0 -97.02 -405.1 -91.44 405.1zm896.92 -584.75c85.41,0 148.66,20.23 189.75,60.46 41.31,40.44 61.75,102.62 61.75,186.52 0,66.48 -13.77,118.12 -41.31,155.12 -27.53,37 -70.13,60.88 -127.79,71.86 61.31,8.39 103.48,26.03 126.5,52.92 22.81,26.89 36.15,70.35 40.02,130.38l9.46 160.06c1.3,22.59 2.8,44.32 4.74,64.97 1.93,20.44 4.95,37.01 9.03,49.7l-190.83 0c-7.96,-18.93 -13.55,-34.42 -16.35,-46.26 -3.01,-12.04 -4.51,-30.54 -4.51,-55.72l0 -143.06c0,-53.79 -10.55,-90.58 -31.41,-110.59 -21.09,-20 -60.67,-29.9 -119.19,-29.9l-37.87 0 0 385.53 -195.99 0 0 -931.99 324 0zm-128.01 402.75l45.4 0c56.36,0 93.8,-10.55 112.09,-31.41 18.28,-21.09 27.32,-54.87 27.32,-101.55 0,-46.26 -9.04,-78.74 -27.11,-97.67 -18.07,-18.94 -56.8,-28.4 -115.96,-28.4l-41.74 0 0 259.03zm614.87 -402.75l139.42 393.92 148.66 -393.92 198.57 0 -259.03 589.92 0 342.07 -197.93 0 0 -342.07 -242.67 -589.92 212.98 0zm-6801.22 1599.14l0 143.72 -314.11 0 0 229.34 289.37 0 0 143.71 -289.37 0 0 269.57 324.22 0 0 145.65 -518.92 0 0 -931.99 508.81 0zm757.51 280.12l-193.63 0 0 -45.18c0,-35.29 -10.11,-63.9 -30.33,-86.27 -20.01,-22.16 -46.9,-33.14 -80.68,-33.14 -44.54,0 -76.16,18.29 -94.88,55.08 -18.72,36.79 -28.83,85.41 -30.55,146.08 -1.72,60.88 -2.58,106.71 -2.58,137.9l1.94 144.36c1.72,66.7 12.69,117.9 33.13,153.4 20.44,35.5 55.93,53.14 106.92,53.14 17.64,0 34.43,-1.29 50.35,-4.31 15.92,-3.01 32.05,-7.31 47.97,-13.33l0 -205.89 -107.14 0 0 -144.36 299.48 0 0 472.66c-83.69,15.49 -142.43,24.96 -175.99,28.4 -33.56,3.23 -64.97,4.95 -94.01,4.95 -96.6,0 -171.69,-15.92 -225.26,-47.55 -53.57,-31.84 -89.49,-78.95 -107.57,-141.78 -18.07,-62.82 -27.1,-164.79 -27.1,-306.14 0,-131.02 11.4,-227.62 33.99,-289.79 22.8,-62.18 58.3,-108 106.71,-137.48 48.19,-29.47 111.01,-44.1 188.46,-44.1 96.17,0 170.39,24.31 222.46,72.72 52.28,48.4 78.31,117.46 78.31,207.39l0 23.24zm362.29 -280.12l0 931.99 -194.7 0 0 -931.99 194.7 0zm423.83 948.77c-92.94,0 -163.29,-20.65 -211.27,-61.96 -47.97,-41.31 -71.85,-103.05 -71.85,-184.8l0 -57.88 197.93 0 0 24.53c0,46.47 7.74,81.32 23.23,104.34 15.71,23.02 43.03,34.64 81.97,34.64 33.35,0 58.73,-9.04 76.59,-26.89 17.86,-17.86 26.89,-43.03 26.89,-75.95 0,-24.74 -5.38,-45.82 -16.13,-63.03 -10.76,-17.22 -26.47,-32.27 -47.55,-45.4l-154.68 -94.44c-73.15,-45.4 -120.7,-87.14 -142.64,-125 -21.73,-38.08 -32.7,-86.27 -32.7,-144.79 0,-78.96 26.89,-140.06 80.46,-183.08 53.57,-43.03 129.51,-64.55 227.83,-64.55 87.99,0 154.9,18.72 200.94,56.37 46.04,37.65 69.06,101.55 69.06,191.47l0 32.28 -191.04 0 0 -22.16c0,-80.68 -31.41,-121.13 -94.02,-121.13 -29.04,0 -52.06,9.25 -69.06,27.97 -17.21,18.72 -25.6,43.89 -25.6,75.3 0,19.36 4.73,37.43 14.2,54.21 9.47,16.79 24.53,31.63 45.18,44.75l188.46 120.48c50.56,31.41 87.13,64.11 109.94,97.89 22.59,33.78 33.99,80.03 33.99,138.34 0,89.49 -26.25,156.62 -78.74,201.37 -52.5,44.75 -132.96,67.12 -241.39,67.12zm987.28 -948.77l0 151.25 -216.43 0 0 780.74 -197.93 0 0 -780.74 -214.27 0 0 -151.25 628.63 0zm599.17 0l0 143.72 -314.11 0 0 229.34 289.37 0 0 143.71 -289.37 0 0 269.57 324.22 0 0 145.65 -518.92 0 0 -931.99 508.81 0zm456.74 0c85.41,0 148.66,20.23 189.75,60.46 41.31,40.44 61.75,102.62 61.75,186.52 0,66.48 -13.77,118.12 -41.31,155.12 -27.53,37 -70.13,60.88 -127.79,71.86 61.31,8.39 103.48,26.03 126.5,52.92 22.81,26.89 36.15,70.35 40.02,130.38l9.46 160.06c1.3,22.59 2.8,44.32 4.74,64.97 1.93,20.44 4.95,37.01 9.03,49.7l-190.83 0c-7.96,-18.93 -13.55,-34.42 -16.35,-46.26 -3.01,-12.04 -4.51,-30.54 -4.51,-55.72l0 -143.06c0,-53.79 -10.55,-90.58 -31.41,-110.59 -21.09,-20 -60.67,-29.9 -119.19,-29.9l-37.87 0 0 385.53 -195.99 0 0 -931.99 324 0zm-128.01 402.75l45.4 0c56.36,0 93.8,-10.55 112.09,-31.41 18.28,-21.09 27.32,-54.87 27.32,-101.55 0,-46.26 -9.04,-78.74 -27.11,-97.67 -18.07,-18.94 -56.8,-28.4 -115.96,-28.4l-41.74 0 0 259.03z"/>
   <path class="fil5" d="M7550.25 22755.89l87.35 0 0 -373.48 116.26 373.48 77.11 0 118.67 -373.48 0 373.48 92.77 0 0 -435.53 -148.19 0 -99.4 316.86 -92.16 -316.86 -152.41 0 0 435.53zm692.76 -435.53l-157.23 435.53 89.16 0 32.52 -93.97 172.29 0 31.32 93.97 93.98 0 -151.2 -435.53 -110.84 0zm-11.45 271.08l64.46 -185.54 60.24 185.54 -124.7 0zm326.5 164.45l93.37 0 0 -190.96 165.66 0 0 190.96 93.37 0 0 -435.53 -94.58 0 0 174.09 -164.45 0 0 -174.09 -93.37 0 0 435.53zm554.81 -435.53l-157.23 435.53 89.16 0 32.52 -93.97 172.29 0 31.32 93.97 93.98 0 -151.2 -435.53 -110.84 0zm-11.45 271.08l64.46 -185.54 60.24 185.54 -124.7 0zm325.3 164.45l94.57 0 0 -169.27 63.25 0c22.89,0 66.87,0 98.79,-20.48 34.34,-22.29 55.42,-64.96 55.42,-115.36 0,-22.19 -3.61,-53.41 -26.5,-81.02 -36.15,-43.37 -88.55,-47.59 -151.2,-47.59l-134.33 0 0 433.72zm92.16 -363.24l46.99 0c26.5,0 76.5,0 76.5,58.73 0,65.96 -56.02,65.96 -86.14,65.96l-37.35 0 0 -124.69zm272.88 363.24l95.18 0 0 -175.9 81.93 0c15.66,0 38.55,0 46.98,24.7 6.03,16.87 19.28,127.1 23.5,151.2l103 0c-4.81,-7.23 -8.43,-12.05 -13.25,-31.32 -3.01,-12.05 -6.62,-33.14 -13.25,-84.34 -7.83,-56.62 -12.65,-93.97 -78.31,-100 21.08,-6.02 90.96,-25.3 90.96,-106.62 0,-28.31 -10.84,-60.24 -37.95,-83.73 -34.94,-30.12 -83.73,-30.12 -131.92,-29.52l-166.87 0 0 435.53zm92.17 -366.86l62.65 0c29.51,0 46.98,0 61.44,10.25 8.43,5.42 22.89,19.27 22.89,48.79 0,30.72 -17.47,45.78 -24.09,50.6 -15.06,12.05 -36.75,12.05 -47.59,12.05l-75.3 0 0 -121.69zm318.06 366.86l298.18 0 0 -72.29 -204.81 0 0 -117.46 185.53 0 0 -71.08 -185.53 0 0 -103.62 198.18 0 0 -71.08 -291.55 0 0 435.53zm359.62 0l93.37 0 0 -436.73 -93.37 0 0 436.73zm269.27 0l93.97 0 0 -363.24 129.51 0 0 -72.29 -353 0 0 72.29 129.52 0 0 363.24z"/>
  </g>
 </g>
</svg>
